<mxfile host="app.diagrams.net" agent="Mozilla/5.0 (Macintosh; Intel Mac OS X 10_15_7) AppleWebKit/537.36 (KHTML, like Gecko) Chrome/136.0.0.0 Safari/537.36" version="27.1.4">
  <diagram name="Page-1" id="mGa3DFw1IfoDd63IZzp_">
    <mxGraphModel dx="1018" dy="619" grid="1" gridSize="10" guides="1" tooltips="1" connect="1" arrows="1" fold="1" page="1" pageScale="1" pageWidth="827" pageHeight="1169" math="0" shadow="0">
      <root>
        <mxCell id="0" />
        <mxCell id="1" parent="0" />
        <mxCell id="fZXp2h9nxDcMR5ki2_Gg-1" value="Sportpro" style="points=[];aspect=fixed;html=1;align=center;shadow=0;dashed=0;fillColor=#FF6A00;strokeColor=none;shape=mxgraph.alibaba_cloud.domain_and_website;labelPosition=center;verticalLabelPosition=bottom;verticalAlign=top;" parent="1" vertex="1">
          <mxGeometry x="228.7" y="120" width="51.3" height="41.4" as="geometry" />
        </mxCell>
        <mxCell id="fZXp2h9nxDcMR5ki2_Gg-3" value="RunRaid" style="points=[];aspect=fixed;html=1;align=center;shadow=0;dashed=0;fillColor=#FF6A00;strokeColor=none;shape=mxgraph.alibaba_cloud.domain_and_website;labelPosition=center;verticalLabelPosition=bottom;verticalAlign=top;" parent="1" vertex="1">
          <mxGeometry x="228.7" y="254.3" width="51.3" height="41.4" as="geometry" />
        </mxCell>
        <mxCell id="fZXp2h9nxDcMR5ki2_Gg-5" value="&lt;div&gt;Timekeeper&lt;/div&gt;Scraper" style="outlineConnect=0;dashed=0;verticalLabelPosition=top;verticalAlign=bottom;align=center;html=1;shape=mxgraph.aws3.lambda_function;fillColor=#F58534;gradientColor=none;labelPosition=center;" parent="1" vertex="1">
          <mxGeometry x="440" y="190" width="50" height="50" as="geometry" />
        </mxCell>
        <mxCell id="fZXp2h9nxDcMR5ki2_Gg-7" style="rounded=0;orthogonalLoop=1;jettySize=auto;html=1;entryX=0;entryY=0.5;entryDx=0;entryDy=0;entryPerimeter=0;" parent="1" source="fZXp2h9nxDcMR5ki2_Gg-1" target="fZXp2h9nxDcMR5ki2_Gg-5" edge="1">
          <mxGeometry relative="1" as="geometry" />
        </mxCell>
        <mxCell id="fZXp2h9nxDcMR5ki2_Gg-8" value="scrap" style="edgeLabel;html=1;align=center;verticalAlign=middle;resizable=0;points=[];" parent="fZXp2h9nxDcMR5ki2_Gg-7" vertex="1" connectable="0">
          <mxGeometry x="-0.0673" y="2" relative="1" as="geometry">
            <mxPoint as="offset" />
          </mxGeometry>
        </mxCell>
        <mxCell id="fZXp2h9nxDcMR5ki2_Gg-23" value="" style="verticalLabelPosition=bottom;html=1;verticalAlign=top;align=center;strokeColor=none;fillColor=#00BEF2;shape=mxgraph.azure.sql_database;" parent="1" vertex="1">
          <mxGeometry x="446.25" y="330" width="37.5" height="50" as="geometry" />
        </mxCell>
        <mxCell id="YZrq8GfaMd0qp3SmLtlA-1" value="Web Server" style="aspect=fixed;sketch=0;html=1;dashed=0;whitespace=wrap;verticalLabelPosition=bottom;verticalAlign=top;fillColor=#2875E2;strokeColor=#ffffff;points=[[0.005,0.63,0],[0.1,0.2,0],[0.9,0.2,0],[0.5,0,0],[0.995,0.63,0],[0.72,0.99,0],[0.5,1,0],[0.28,0.99,0]];shape=mxgraph.kubernetes.icon2;prIcon=api" parent="1" vertex="1">
          <mxGeometry x="440" y="480" width="50" height="48" as="geometry" />
        </mxCell>
        <mxCell id="YZrq8GfaMd0qp3SmLtlA-3" style="edgeStyle=orthogonalEdgeStyle;rounded=0;orthogonalLoop=1;jettySize=auto;html=1;entryX=0.5;entryY=0;entryDx=0;entryDy=0;entryPerimeter=0;" parent="1" source="fZXp2h9nxDcMR5ki2_Gg-23" target="YZrq8GfaMd0qp3SmLtlA-1" edge="1">
          <mxGeometry relative="1" as="geometry">
            <Array as="points">
              <mxPoint x="465" y="390" />
              <mxPoint x="465" y="390" />
            </Array>
          </mxGeometry>
        </mxCell>
        <mxCell id="uOwivldrNDDI2XhNmtix-5" value="read" style="edgeLabel;html=1;align=center;verticalAlign=middle;resizable=0;points=[];" vertex="1" connectable="0" parent="YZrq8GfaMd0qp3SmLtlA-3">
          <mxGeometry x="-0.1601" y="3" relative="1" as="geometry">
            <mxPoint as="offset" />
          </mxGeometry>
        </mxCell>
        <mxCell id="YZrq8GfaMd0qp3SmLtlA-5" value="User" style="shape=umlActor;verticalLabelPosition=bottom;verticalAlign=top;html=1;outlineConnect=0;" parent="1" vertex="1">
          <mxGeometry x="450" y="640" width="30" height="60" as="geometry" />
        </mxCell>
        <mxCell id="YZrq8GfaMd0qp3SmLtlA-6" style="edgeStyle=orthogonalEdgeStyle;rounded=0;orthogonalLoop=1;jettySize=auto;html=1;exitX=0.5;exitY=0;exitDx=0;exitDy=0;exitPerimeter=0;entryX=0.5;entryY=1;entryDx=0;entryDy=0;entryPerimeter=0;" parent="1" source="YZrq8GfaMd0qp3SmLtlA-5" target="YZrq8GfaMd0qp3SmLtlA-1" edge="1">
          <mxGeometry relative="1" as="geometry" />
        </mxCell>
        <mxCell id="YZrq8GfaMd0qp3SmLtlA-7" value="HTTP Request" style="edgeLabel;html=1;align=center;verticalAlign=middle;resizable=0;points=[];" parent="YZrq8GfaMd0qp3SmLtlA-6" vertex="1" connectable="0">
          <mxGeometry x="-0.3393" y="-2" relative="1" as="geometry">
            <mxPoint as="offset" />
          </mxGeometry>
        </mxCell>
        <mxCell id="YZrq8GfaMd0qp3SmLtlA-8" value="" style="sketch=0;points=[[0,0,0],[0.25,0,0],[0.5,0,0],[0.75,0,0],[1,0,0],[0,1,0],[0.25,1,0],[0.5,1,0],[0.75,1,0],[1,1,0],[0,0.25,0],[0,0.5,0],[0,0.75,0],[1,0.25,0],[1,0.5,0],[1,0.75,0]];outlineConnect=0;fontColor=#232F3E;fillColor=#E7157B;strokeColor=#ffffff;dashed=0;verticalLabelPosition=bottom;verticalAlign=top;align=center;html=1;fontSize=12;fontStyle=0;aspect=fixed;shape=mxgraph.aws4.resourceIcon;resIcon=mxgraph.aws4.eventbridge;" parent="1" vertex="1">
          <mxGeometry x="490" y="200" width="30" height="30" as="geometry" />
        </mxCell>
        <mxCell id="uOwivldrNDDI2XhNmtix-1" style="rounded=0;orthogonalLoop=1;jettySize=auto;html=1;entryX=0;entryY=0.5;entryDx=0;entryDy=0;entryPerimeter=0;" edge="1" parent="1" source="fZXp2h9nxDcMR5ki2_Gg-3" target="fZXp2h9nxDcMR5ki2_Gg-5">
          <mxGeometry relative="1" as="geometry" />
        </mxCell>
        <mxCell id="uOwivldrNDDI2XhNmtix-2" value="scrap" style="edgeLabel;html=1;align=center;verticalAlign=middle;resizable=0;points=[];" vertex="1" connectable="0" parent="uOwivldrNDDI2XhNmtix-1">
          <mxGeometry x="-0.3204" y="1" relative="1" as="geometry">
            <mxPoint as="offset" />
          </mxGeometry>
        </mxCell>
        <mxCell id="uOwivldrNDDI2XhNmtix-3" style="edgeStyle=orthogonalEdgeStyle;rounded=0;orthogonalLoop=1;jettySize=auto;html=1;exitX=0.5;exitY=1;exitDx=0;exitDy=0;exitPerimeter=0;entryX=0.5;entryY=0;entryDx=0;entryDy=0;entryPerimeter=0;" edge="1" parent="1" source="fZXp2h9nxDcMR5ki2_Gg-5" target="fZXp2h9nxDcMR5ki2_Gg-23">
          <mxGeometry relative="1" as="geometry" />
        </mxCell>
        <mxCell id="uOwivldrNDDI2XhNmtix-4" value="write" style="edgeLabel;html=1;align=center;verticalAlign=middle;resizable=0;points=[];" vertex="1" connectable="0" parent="uOwivldrNDDI2XhNmtix-3">
          <mxGeometry x="0.0222" y="-2" relative="1" as="geometry">
            <mxPoint as="offset" />
          </mxGeometry>
        </mxCell>
      </root>
    </mxGraphModel>
  </diagram>
</mxfile>
